<svg xmlns="http://www.w3.org/2000/svg" version="1.1" xmlns:xlink="http://www.w3.org/1999/xlink" xmlns:svgjs="http://svgjs.dev/svgjs" width="1500" height="935" viewBox="0 0 1500 935"><g transform="matrix(1,0,0,1,-0.9090909090909918,0.3785425101214628)"><svg viewBox="0 0 396 247" data-background-color="#f5ba41" preserveAspectRatio="xMidYMid meet" height="935" width="1500" xmlns="http://www.w3.org/2000/svg" xmlns:xlink="http://www.w3.org/1999/xlink"><g id="tight-bounds" transform="matrix(1,0,0,1,0.2400000000000091,-0.09999999999999432)"><svg viewBox="0 0 395.52 247.2" height="247.2" width="395.52"><g><svg></svg></g><g><svg viewBox="0 0 395.52 247.2" height="247.2" width="395.52"><g transform="matrix(1,0,0,1,75.54432,84.54660711882428)"><svg viewBox="0 0 244.43135999999998 78.10678576235144" height="78.10678576235144" width="244.43135999999998"><g><svg viewBox="0 0 344.52876539098463 110.09239758499514" height="78.10678576235144" width="244.43135999999998"><g transform="matrix(1,0,0,1,100.09740539098465,1.2207609307054454)"><svg viewBox="0 0 244.43135999999998 107.65087572358425" height="107.65087572358425" width="244.43135999999998"><g id="textblocktransform"><svg viewBox="0 0 244.43135999999998 107.65087572358425" height="107.65087572358425" width="244.43135999999998" id="textblock"><g><svg viewBox="0 0 244.43135999999998 61.19283004172461" height="61.19283004172461" width="244.43135999999998"><g transform="matrix(1,0,0,1,0,0)"><svg width="244.43135999999998" viewBox="2.53 -33.33 174.75 43.75" height="61.19283004172461" data-palette-color="#ffffff"><path d="M11.11 0.42L11.11 0.42Q8.33 0.42 6.09-0.69 3.85-1.81 2.53-3.4L2.53-3.4 3.68-8.19Q4.65-6.25 6.6-4.69 8.54-3.13 11.25-3.13L11.25-3.13Q13.72-3.13 15.33-4.69 16.94-6.25 16.94-8.54L16.94-8.54Q16.94-10.21 16.15-11.28 15.35-12.36 14.34-12.99 13.33-13.61 12.74-13.89L12.74-13.89 8.92-15.83Q8.02-16.32 6.68-17.19 5.35-18.06 4.34-19.58 3.33-21.11 3.33-23.54L3.33-23.54Q3.33-25.9 4.43-27.74 5.52-29.58 7.48-30.63 9.44-31.67 11.98-31.67L11.98-31.67Q14.48-31.67 16.39-30.78 18.3-29.9 19.38-28.96L19.38-28.96 18.23-24.17Q17.36-25.63 15.66-26.91 13.96-28.19 11.81-28.19L11.81-28.19Q9.72-28.19 8.47-26.96 7.22-25.73 7.22-23.92L7.22-23.92Q7.22-22.53 7.86-21.63 8.51-20.73 9.32-20.21 10.14-19.69 10.66-19.41L10.66-19.41 14.55-17.47Q15.24-17.12 16.3-16.49 17.36-15.87 18.4-14.84 19.44-13.82 20.14-12.34 20.83-10.87 20.83-8.78L20.83-8.78Q20.83-6.11 19.57-4.03 18.3-1.94 16.11-0.76 13.92 0.42 11.11 0.42ZM30 0L26.25 0 26.25-33.33 30-33.33 30-17.88Q31.18-19.51 32.91-20.38 34.65-21.25 36.63-21.25L36.63-21.25Q38.85-21.25 40.74-20.16 42.64-19.06 43.82-17 45-14.93 45-11.98L45-11.98 45 0 41.25 0 41.25-11.46Q41.25-13.92 39.77-15.82 38.3-17.71 35.62-17.71L35.62-17.71Q33.44-17.71 31.72-16.13 30-14.55 30-11.56L30-11.56 30 0ZM60.76 0.42L60.76 0.42Q57.74 0.42 55.24-1.04 52.74-2.5 51.26-4.97 49.79-7.43 49.79-10.42L49.79-10.42Q49.79-13.44 51.26-15.89 52.74-18.33 55.24-19.79 57.74-21.25 60.76-21.25L60.76-21.25Q63.81-21.25 66.3-19.79 68.78-18.33 70.26-15.89 71.73-13.44 71.73-10.42L71.73-10.42Q71.73-7.43 70.26-4.97 68.78-2.5 66.3-1.04 63.81 0.42 60.76 0.42ZM60.76-3.13L60.76-3.13Q62.77-3.13 64.4-4.11 66.04-5.1 67.01-6.75 67.98-8.4 67.98-10.42L67.98-10.42Q67.98-12.43 67.01-14.08 66.04-15.73 64.4-16.72 62.77-17.71 60.76-17.71L60.76-17.71Q58.75-17.71 57.11-16.72 55.48-15.73 54.51-14.08 53.54-12.43 53.54-10.42L53.54-10.42Q53.54-8.4 54.51-6.75 55.48-5.1 57.11-4.11 58.75-3.13 60.76-3.13ZM80.69 10.42L76.94 10.42 76.94-20.83 80.41-20.83 80.41-18.09Q81.83-19.51 83.71-20.31 85.58-21.11 87.74-21.11L87.74-21.11Q90.62-21.11 92.96-19.67 95.31-18.23 96.71-15.8 98.12-13.37 98.12-10.42L98.12-10.42Q98.12-7.47 96.71-5.03 95.31-2.6 92.96-1.16 90.62 0.28 87.74 0.28L87.74 0.28Q85.69 0.28 83.88-0.45 82.08-1.18 80.69-2.47L80.69-2.47 80.69 10.42ZM87.25-3.13L87.25-3.13Q89.23-3.13 90.84-4.11 92.46-5.1 93.41-6.75 94.37-8.4 94.37-10.42L94.37-10.42Q94.37-12.43 93.41-14.08 92.46-15.73 90.84-16.72 89.23-17.71 87.25-17.71L87.25-17.71Q85.27-17.71 83.66-16.72 82.04-15.73 81.09-14.08 80.13-12.43 80.13-10.42L80.13-10.42Q80.13-8.4 81.09-6.75 82.04-5.1 83.66-4.11 85.27-3.13 87.25-3.13ZM108.32 0L104.37 0 104.37-31.25 108.32-31.25 108.32-21.04 119.43-21.04 119.43-31.25 123.39-31.25 123.39 0 119.43 0 119.43-17.5 108.32-17.5 108.32 0ZM139.05 0.42L139.05 0.42Q136.86 0.42 134.95-0.68 133.04-1.77 131.86-3.85 130.68-5.94 130.68-8.85L130.68-8.85 130.68-20.83 134.43-20.83 134.43-9.38Q134.43-6.91 135.91-5.02 137.38-3.13 140.06-3.13L140.06-3.13Q142.24-3.13 143.96-4.7 145.68-6.28 145.68-9.27L145.68-9.27 145.68-20.83 149.43-20.83 149.43 0 145.96 0 145.96-3.37Q144.81-1.53 142.99-0.56 141.17 0.42 139.05 0.42ZM166.89 0.28L166.89 0.28Q164.74 0.28 162.87-0.54 160.99-1.35 159.57-2.74L159.57-2.74 159.57 0 156.1 0 156.1-33.33 159.85-33.33 159.85-18.37Q161.24-19.65 163.04-20.38 164.85-21.11 166.89-21.11L166.89-21.11Q169.78-21.11 172.12-19.67 174.46-18.23 175.87-15.8 177.28-13.37 177.28-10.42L177.28-10.42Q177.28-7.47 175.87-5.03 174.46-2.6 172.12-1.16 169.78 0.28 166.89 0.28ZM166.41-3.13L166.41-3.13Q168.39-3.13 170-4.11 171.62-5.1 172.57-6.75 173.53-8.4 173.53-10.42L173.53-10.42Q173.53-12.43 172.57-14.08 171.62-15.73 170-16.72 168.39-17.71 166.41-17.71L166.41-17.71Q164.43-17.71 162.81-16.72 161.2-15.73 160.25-14.08 159.29-12.43 159.29-10.42L159.29-10.42Q159.29-8.4 160.25-6.75 161.2-5.1 162.81-4.11 164.43-3.13 166.41-3.13Z" opacity="1" transform="matrix(1,0,0,1,0,0)" fill="#ffffff" class="wordmark-text-0" data-fill-palette-color="primary" id="text-0"></path></svg></g></svg></g><g transform="matrix(1,0,0,1,0,75.63898858665479)"><svg viewBox="0 0 244.43135999999998 32.01188713692946" height="32.01188713692946" width="244.43135999999998"><g transform="matrix(1,0,0,1,0,0)"><svg width="244.43135999999998" viewBox="3 -39.65 385.56 50.5" height="32.01188713692946" data-palette-color="#ffffff"><path d="M17.05-18.3Q20.4-17.55 22.33-15.63 24.25-13.7 24.25-9.9L24.25-9.9Q24.25-4.9 20.88-2.45 17.5 0 11.7 0L11.7 0 3 0 3-34.55 10.55-34.55Q16.5-34.55 19.75-32.3 23-30.05 23-25.75L23-25.75Q23-22.85 21.38-20.95 19.75-19.05 17.05-18.3L17.05-18.3ZM11.2-29.85L9.35-29.85 9.35-20.3 11.5-20.3Q16.55-20.3 16.55-25.2L16.55-25.2Q16.55-27.65 15.28-28.75 14-29.85 11.2-29.85L11.2-29.85ZM11.75-4.8Q14.65-4.8 16.15-6.03 17.65-7.25 17.65-10.15L17.65-10.15Q17.65-13.05 16.25-14.43 14.85-15.8 11.9-15.8L11.9-15.8 9.35-15.8 9.35-4.8 11.75-4.8ZM46.4-26.45L46.4 0 41.05 0 40.75-3.35Q39.5-1.3 37.95-0.28 36.4 0.75 34.35 0.75L34.35 0.75Q31.45 0.75 29.77-1.3 28.1-3.35 28.1-6.65L28.1-6.65 28.1-26.45 34.25-26.45 34.25-7Q34.25-3.9 36.35-3.9L36.35-3.9Q37.55-3.9 38.5-4.83 39.45-5.75 40.25-7.45L40.25-7.45 40.25-26.45 46.4-26.45ZM70.75-26.45L63.75 0.1Q62.45 4.9 59.55 7.65 56.65 10.4 51.8 10.85L51.8 10.85 51.1 6.5Q54.25 5.85 55.82 4.42 57.4 3 58.3 0L58.3 0 56 0 49.3-26.45 55.55-26.45 59.95-4.1 64.65-26.45 70.75-26.45ZM107.14-27.15Q109.79-27.15 111.39-25.1 112.99-23.05 112.99-19.6L112.99-19.6 112.99 0 106.94 0 106.94-18.95Q106.94-20.85 106.44-21.68 105.94-22.5 104.99-22.5L104.99-22.5Q103.04-22.5 101.24-18.8L101.24-18.8 101.24 0 95.24 0 95.24-18.95Q95.24-22.5 93.34-22.5L93.34-22.5Q91.29-22.5 89.54-18.8L89.54-18.8 89.54 0 83.49 0 83.49-26.45 88.84-26.45 89.24-23.05Q91.84-27.15 95.49-27.15L95.49-27.15Q97.34-27.15 98.69-26 100.04-24.85 100.74-22.75L100.74-22.75Q103.39-27.15 107.14-27.15L107.14-27.15ZM127.89-27.15Q132.89-27.15 135.66-23.65 138.44-20.15 138.44-13.25L138.44-13.25Q138.44-6.65 135.64-2.95 132.84 0.75 127.89 0.75L127.89 0.75Q122.94 0.75 120.14-2.88 117.34-6.5 117.34-13.25L117.34-13.25Q117.34-19.95 120.14-23.55 122.94-27.15 127.89-27.15L127.89-27.15ZM127.89-22.5Q125.74-22.5 124.74-20.38 123.74-18.25 123.74-13.25L123.74-13.25Q123.74-8.2 124.74-6.08 125.74-3.95 127.89-3.95L127.89-3.95Q130.04-3.95 131.04-6.08 132.04-8.2 132.04-13.25L132.04-13.25Q132.04-18.3 131.04-20.4 130.04-22.5 127.89-22.5L127.89-22.5ZM154.64-27.1Q155.79-27.1 156.69-26.75L156.69-26.75 155.69-20.85Q154.69-21.1 153.84-21.1L153.84-21.1Q151.94-21.1 150.84-19.45 149.74-17.8 149.14-14.55L149.14-14.55 149.14 0 142.99 0 142.99-26.45 148.34-26.45 148.79-21.85Q150.64-27.1 154.64-27.1L154.64-27.1ZM178.38-13.85Q178.38-13.4 178.23-11.3L178.23-11.3 164.58-11.3Q164.78-7.2 166.01-5.58 167.23-3.95 169.48-3.95L169.48-3.95Q171.03-3.95 172.28-4.48 173.53-5 174.98-6.15L174.98-6.15 177.53-2.65Q174.03 0.75 169.13 0.75L169.13 0.75Q163.93 0.75 161.16-2.85 158.38-6.45 158.38-13L158.38-13Q158.38-19.55 161.03-23.35 163.68-27.15 168.53-27.15L168.53-27.15Q173.18-27.15 175.78-23.78 178.38-20.4 178.38-13.85L178.38-13.85ZM172.38-15.3L172.38-15.65Q172.38-19.4 171.48-21.13 170.58-22.85 168.58-22.85L168.58-22.85Q166.73-22.85 165.76-21.18 164.78-19.5 164.58-15.3L164.58-15.3 172.38-15.3ZM194.93-7.05Q196.53-7.05 197.55-5.98 198.58-4.9 198.58-3.25L198.58-3.25Q198.58-2.55 198.35-1.78 198.13-1 197.78-0.08 197.43 0.85 197.33 1.2L197.33 1.2 194.68 8.55 191.23 8.55 193.03 0.1Q191.23-1.2 191.23-3.2L191.23-3.2Q191.23-4.85 192.28-5.95 193.33-7.05 194.93-7.05L194.93-7.05ZM220.93-29.85L222.48-25.1Q221.43-24.6 219.95-24.4 218.48-24.2 216.28-24.2L216.28-24.2Q218.38-23.2 219.4-21.53 220.43-19.85 220.43-17.4L220.43-17.4Q220.43-13.4 217.98-10.95 215.53-8.5 211.33-8.5L211.33-8.5Q210.08-8.5 208.78-8.9L208.78-8.9Q207.88-8.15 207.88-6.85L207.88-6.85Q207.88-5.85 208.43-5.35 208.98-4.85 210.48-4.85L210.48-4.85 213.28-4.85Q217.28-4.85 219.63-2.78 221.98-0.7 221.98 2.5L221.98 2.5Q221.98 6.3 219.05 8.58 216.13 10.85 210.73 10.85L210.73 10.85Q205.03 10.85 202.75 8.75 200.48 6.65 200.48 2.6L200.48 2.6 205.93 2.6Q205.93 4.75 206.93 5.65 207.93 6.55 210.78 6.55L210.78 6.55Q213.53 6.55 214.68 5.6 215.83 4.65 215.83 2.9L215.83 2.9Q215.83 1.2 214.88 0.4 213.93-0.4 211.93-0.4L211.93-0.4 210.03-0.4Q206.23-0.4 204.48-1.75 202.73-3.1 202.73-5.45L202.73-5.45Q202.73-6.8 203.45-8.03 204.18-9.25 205.43-10.2L205.43-10.2Q203.38-11.5 202.43-13.3 201.48-15.1 201.48-17.7L201.48-17.7Q201.48-22.05 204.08-24.58 206.68-27.1 211.08-27.1L211.08-27.1Q214.33-27.1 216.45-27.8 218.58-28.5 220.93-29.85L220.93-29.85ZM211.08-23Q209.33-23 208.43-21.75 207.53-20.5 207.53-17.8L207.53-17.8Q207.53-15.25 208.43-13.88 209.33-12.5 211.03-12.5L211.03-12.5Q212.78-12.5 213.63-13.73 214.48-14.95 214.48-17.85L214.48-17.85Q214.48-20.55 213.65-21.78 212.83-23 211.08-23L211.08-23ZM242.12-6.4Q242.12-5.1 242.47-4.48 242.82-3.85 243.62-3.45L243.62-3.45 242.37 0.65Q240.32 0.4 239.1-0.45 237.87-1.3 237.27-3.05L237.27-3.05Q234.97 0.75 230.82 0.75L230.82 0.75Q227.52 0.75 225.57-1.48 223.62-3.7 223.62-7.4L223.62-7.4Q223.62-11.7 226.3-13.95 228.97-16.2 234.07-16.2L234.07-16.2 236.12-16.2 236.12-18.05Q236.12-20.55 235.25-21.58 234.37-22.6 232.42-22.6L232.42-22.6Q230.07-22.6 226.57-21.3L226.57-21.3 225.17-25.3Q227.17-26.2 229.32-26.68 231.47-27.15 233.42-27.15L233.42-27.15Q242.12-27.15 242.12-18.35L242.12-18.35 242.12-6.4ZM232.47-3.7Q234.87-3.7 236.12-7L236.12-7 236.12-12.55 234.67-12.55Q232.12-12.55 230.95-11.4 229.77-10.25 229.77-7.85L229.77-7.85Q229.77-5.8 230.47-4.75 231.17-3.7 232.47-3.7L232.47-3.7ZM247.92-26.45L254.07-26.45 254.07 0 247.92 0 247.92-26.45ZM250.97-39.65Q252.62-39.65 253.65-38.6 254.67-37.55 254.67-35.9L254.67-35.9Q254.67-34.3 253.65-33.25 252.62-32.2 250.97-32.2L250.97-32.2Q249.32-32.2 248.3-33.25 247.27-34.3 247.27-35.9L247.27-35.9Q247.27-37.55 248.3-38.6 249.32-39.65 250.97-39.65L250.97-39.65ZM272.12-27.15Q274.97-27.15 276.62-25.1 278.27-23.05 278.27-19.6L278.27-19.6 278.27 0 272.12 0 272.12-18.9Q272.12-20.8 271.59-21.63 271.07-22.45 270.07-22.45L270.07-22.45Q267.97-22.45 265.92-18.5L265.92-18.5 265.92 0 259.77 0 259.77-26.45 265.12-26.45 265.57-23Q266.92-25.1 268.44-26.13 269.97-27.15 272.12-27.15L272.12-27.15ZM317.31-27.15Q319.96-27.15 321.56-25.1 323.16-23.05 323.16-19.6L323.16-19.6 323.16 0 317.11 0 317.11-18.95Q317.11-20.85 316.61-21.68 316.11-22.5 315.16-22.5L315.16-22.5Q313.21-22.5 311.41-18.8L311.41-18.8 311.41 0 305.41 0 305.41-18.95Q305.41-22.5 303.51-22.5L303.51-22.5Q301.46-22.5 299.71-18.8L299.71-18.8 299.71 0 293.66 0 293.66-26.45 299.01-26.45 299.41-23.05Q302.01-27.15 305.66-27.15L305.66-27.15Q307.51-27.15 308.86-26 310.21-24.85 310.91-22.75L310.91-22.75Q313.56-27.15 317.31-27.15L317.31-27.15ZM338.06-27.15Q343.06-27.15 345.84-23.65 348.61-20.15 348.61-13.25L348.61-13.25Q348.61-6.65 345.81-2.95 343.01 0.75 338.06 0.75L338.06 0.75Q333.11 0.75 330.31-2.88 327.51-6.5 327.51-13.25L327.51-13.25Q327.51-19.95 330.31-23.55 333.11-27.15 338.06-27.15L338.06-27.15ZM338.06-22.5Q335.91-22.5 334.91-20.38 333.91-18.25 333.91-13.25L333.91-13.25Q333.91-8.2 334.91-6.08 335.91-3.95 338.06-3.95L338.06-3.95Q340.21-3.95 341.21-6.08 342.21-8.2 342.21-13.25L342.21-13.25Q342.21-18.3 341.21-20.4 340.21-22.5 338.06-22.5L338.06-22.5ZM364.81-27.1Q365.96-27.1 366.86-26.75L366.86-26.75 365.86-20.85Q364.86-21.1 364.01-21.1L364.01-21.1Q362.11-21.1 361.01-19.45 359.91-17.8 359.31-14.55L359.31-14.55 359.31 0 353.16 0 353.16-26.45 358.51-26.45 358.96-21.85Q360.81-27.1 364.81-27.1L364.81-27.1ZM388.56-13.85Q388.56-13.4 388.41-11.3L388.41-11.3 374.76-11.3Q374.96-7.2 376.18-5.58 377.41-3.95 379.66-3.95L379.66-3.95Q381.21-3.95 382.46-4.48 383.71-5 385.16-6.15L385.16-6.15 387.71-2.65Q384.21 0.75 379.31 0.75L379.31 0.75Q374.11 0.75 371.33-2.85 368.56-6.45 368.56-13L368.56-13Q368.56-19.55 371.21-23.35 373.86-27.15 378.71-27.15L378.71-27.15Q383.36-27.15 385.96-23.78 388.56-20.4 388.56-13.85L388.56-13.85ZM382.56-15.3L382.56-15.65Q382.56-19.4 381.66-21.13 380.76-22.85 378.76-22.85L378.76-22.85Q376.91-22.85 375.93-21.18 374.96-19.5 374.76-15.3L374.76-15.3 382.56-15.3Z" opacity="1" transform="matrix(1,0,0,1,0,0)" fill="#ffffff" class="slogan-text-1" data-fill-palette-color="secondary" id="text-1"></path></svg></g></svg></g></svg></g></svg></g><g><svg viewBox="0 0 85.65124684605446 110.09239758499514" height="110.09239758499514" width="85.65124684605446"><g><svg xmlns="http://www.w3.org/2000/svg" xmlns:xlink="http://www.w3.org/1999/xlink" version="1.1" x="0" y="0" viewBox="13.516 4.999995518767339 69.484 89.31171974116083" enable-background="new 0 0 100 100" xml:space="preserve" height="110.09239758499514" width="85.65124684605446" class="icon-icon-0" data-fill-palette-color="accent" id="icon-0"><g fill="#ffffff" data-fill-palette-color="accent"><g fill="#ffffff" data-fill-palette-color="accent"><path fill="#ffffff" d="M19.847 63.395A8 8 0 0 0 20.462 63.809C20.605 63.899 20.75 63.987 20.899 64.07 20.961 64.103 21.024 64.134 21.088 64.169A9 9 0 0 0 22.66 64.8C22.729 64.82 22.795 64.845 22.865 64.863L22.868 64.858C24.66 65.335 26.764 65.28 29.238 64.382 31.011 63.739 31.992 62.396 32.524 60.938L32.54 60.894A8 8 0 0 0 32.835 59.876C33.251 59.942 33.691 59.991 34.181 59.991 34.839 59.991 35.571 59.908 36.359 59.734 36.464 60.636 36.436 62.327 36.462 63.872 36.473 64.532 37.068 64.885 37.702 64.894A1 1 0 0 0 37.886 64.882C38.434 64.798 38.922 64.304 38.957 63.709 39.395 56.307 37.542 55.148 37.238 54.892A1.38 1.38 0 0 0 36.145 54.586 1.24 1.24 0 0 0 35.499 54.886C35.019 55.318 35.062 56 35.378 56.574 35.453 56.71 35.572 56.876 35.786 57.421 34.683 57.664 33.84 57.638 33.109 57.518A17 17 0 0 0 33.109 56.965V56.954A14 14 0 0 0 33.054 55.949L33.051 55.922A10 10 0 0 0 33.007 55.523L33.005 55.504 32.992 55.416 32.99 55.397 32.985 55.368 32.982 55.337 32.979 55.319A1 1 0 0 0 32.958 55.188L32.924 55.023 32.918 54.999A6 6 0 0 0 32.857 54.776L32.842 54.728A4 4 0 0 0 32.614 54.156L32.587 54.1A4 4 0 0 0 32.412 53.783L32.383 53.737A5 5 0 0 0 32.143 53.388 5 5 0 0 0 31.865 53.063L31.804 53A4 4 0 0 0 31.456 52.679L31.445 52.669A5 5 0 0 0 31.044 52.38L30.956 52.322A5 5 0 0 0 30.481 52.062L30.386 52.019A6 6 0 0 0 29.79 51.787 7 7 0 0 0 29.155 51.617C29.104 51.607 29.052 51.596 29 51.588A8 8 0 0 0 28.263 51.475C28.242 51.473 28.22 51.473 28.199 51.472A10 10 0 0 0 27.414 51.436C27.375 51.434 27.342 51.43 27.303 51.43 27.279 51.43 27.249 51.434 27.224 51.434 26.935 51.436 26.633 51.448 26.314 51.473 26.251 51.48 26.185 51.488 26.121 51.493 25.828 51.522 25.521 51.559 25.201 51.61L25.023 51.636C24.665 51.696 24.287 51.773 23.896 51.862L23.619 51.927C23.208 52.027 22.785 52.137 22.337 52.271A12 12 0 0 1 21.419 52.503C21.315 52.525 21.214 52.54 21.11 52.561 20.91 52.599 20.709 52.635 20.512 52.664 20.394 52.68 20.278 52.693 20.16 52.706 19.979 52.727 19.799 52.745 19.621 52.757 19.503 52.767 19.386 52.775 19.27 52.779 19.094 52.79 18.921 52.794 18.749 52.796 18.624 52.798 18.499 52.801 18.376 52.8L18.209 52.797A17 17 0 0 1 17.638 52.775L17.55 52.771A19 19 0 0 1 16.927 52.717L16.798 52.704C16.633 52.684 16.473 52.665 16.318 52.643L16.197 52.625A15 15 0 0 1 15.665 52.538C15.646 52.536 15.63 52.531 15.612 52.528A26 26 0 0 1 15.068 52.421L14.677 52.33C14.669 52.328 14.66 52.324 14.652 52.323A14 14 0 0 1 14.291 52.229L14.216 52.208C14.131 52.186 14.052 52.161 13.981 52.141L13.927 52.125C13.847 52.101 13.777 52.078 13.719 52.059L13.684 52.049 13.58 52.013 13.549 52.002 13.516 51.99 13.523 52.027 13.53 52.062 13.546 52.137 13.564 52.223 13.584 52.313 13.614 52.448 13.636 52.542C13.664 52.663 13.698 52.798 13.737 52.953L13.754 53.015 13.821 53.271 13.852 53.386 13.934 53.68 13.966 53.789C13.999 53.902 14.032 54.015 14.07 54.134L14.078 54.162C14.203 54.568 14.352 55.017 14.526 55.495L14.555 55.572C14.609 55.72 14.666 55.871 14.726 56.024L14.761 56.114C15.025 56.786 15.338 57.498 15.704 58.216L15.733 58.274C15.819 58.441 15.908 58.609 16.001 58.775L16.053 58.869C16.148 59.04 16.245 59.209 16.346 59.379L16.35 59.385A17 17 0 0 0 17.471 61.036C17.587 61.184 17.706 61.332 17.827 61.477L17.925 61.591C18.048 61.735 18.174 61.877 18.303 62.015L18.368 62.081C18.782 62.519 19.23 62.924 19.71 63.289 19.757 63.325 19.801 63.362 19.847 63.395" data-fill-palette-color="accent"></path><path fill="#ffffff" d="M44.517 58.801C43.333 58.84 41.909 60.255 42.085 61.762 42.303 63.641 41.95 65.016 41.376 65.603 42.852 65.743 43.666 64.269 43.674 64.257 44.046 63.487 44.816 62.999 45.526 63.486 45.998 63.808 47.134 64.644 45.901 66.102 45.712 66.327 43.22 69.273 38.162 68.945 33.94 68.67 33.736 66.908 33.382 66.458 32.599 67.357 31.58 67.731 30.261 68.209 28.594 68.813 26.816 68.87 25.274 68.87 24.027 68.87 21.81 68.299 20.863 67.563 16.371 72.706 21.126 82.972 22.988 86.152 27.611 94.041 33.185 95.163 36.218 93.555 37.967 92.629 38.572 93.338 39.912 93.647 52.153 96.461 57.411 81.252 58.059 73.051 58.369 69.088 56.775 57.188 44.517 58.801" data-fill-palette-color="accent"></path></g><g fill="#ffffff" data-fill-palette-color="accent"><path fill="none" d="M72.604 15.464C72.62 14.869 72.635 14.464 72.657 13.876 71.579 14.005 69.796 14.178 69.085 14.178 68.503 14.178 67.189 14.059 66.14 13.947 66.31 18.702 66.337 21.542 66.079 26.312 66.058 26.697 66.038 27.708 66.017 28.101H72.781C72.656 26.236 72.599 23.741 72.57 21.879 72.521 19.117 72.537 18.224 72.604 15.464"></path><path fill="#ffffff" d="M65.514 13.876L66.139 13.947 66.135 13.878z" data-fill-palette-color="accent"></path><g fill="#ffffff" data-fill-palette-color="accent"><path fill="none" d="M65.514 13.876L66.139 13.947 66.135 13.878z"></path><path fill="none" d="M62.062 72.267A36 36 0 0 1 61.835 74.31H80.368V52.102H58.518C58.329 51.851 58.459 57.196 58.422 59.842 61.732 63.824 62.279 69.507 62.062 72.267"></path><path fill="none" d="M72.604 15.464C72.62 14.869 72.635 14.464 72.657 13.876 71.579 14.005 69.796 14.178 69.085 14.178 68.503 14.178 67.189 14.059 66.14 13.947 66.31 18.702 66.337 21.542 66.079 26.312 66.058 26.697 66.038 27.708 66.017 28.101H72.781C72.656 26.236 72.599 23.741 72.57 21.879 72.521 19.117 72.537 18.224 72.604 15.464"></path><path fill="#ffffff" d="M76.426 35.443C75.947 35.122 75.713 34.086 75.561 33.487 75.237 32.205 75.082 30.877 74.954 29.561 74.632 26.291 74.563 22.995 74.546 19.711 74.536 17.275 74.566 16.707 74.636 14.273 74.644 14.067 74.65 13.857 74.659 13.649H74.657C74.671 13.607 74.698 13.533 74.749 13.429 74.933 13.058 75.114 12.678 75.255 12.284 75.61 11.294 76.331 10.372 75.989 9.362 75.846 8.94 74.846 6.314 74.327 5.917 73.998 5.666 70.828 4.998 69.1 5 67.368 4.998 64.795 5.666 64.467 5.918 63.949 6.314 62.949 8.94 62.807 9.363 62.461 10.374 63.182 11.295 63.541 12.285 63.68 12.679 63.861 13.058 64.047 13.43 64.1 13.534 64.125 13.609 64.139 13.65L64.151 13.985C64.178 14.868 64.2 15.752 64.217 16.636 64.272 19.678 64.272 20.854 64.178 23.896 64.086 26.913 63.971 29.994 63.356 32.959 63.196 33.724 63.02 34.724 62.495 35.328 62.151 35.721 61.391 36.115 60.917 36.502 59.989 37.254 59.175 38.14 58.448 39.082 56.999 40.949 56.007 41.883 55.794 45.492V57.501A11.6 11.6 0 0 1 58.423 59.842C58.46 57.196 58.329 51.851 58.519 52.102H80.371V74.31H61.836C61.197 78.888 59.541 84.605 56.662 89.244 56.682 89.304 56.703 89.364 56.73 89.423 57.05 90.141 57.638 91.414 58.201 91.969 58.795 92.547 59.457 92.756 60.221 93.021 61.95 93.621 63.709 93.977 65.532 94.14 69.844 94.523 74.876 94.332 78.977 92.881 79.709 92.625 80.165 92.395 80.729 91.836 81.327 91.251 81.889 90.45 82.209 89.691 82.748 88.394 83 87.145 83 87.002V44.891C82.521 39.786 79.641 37.487 76.426 35.443M66.016 28.101C66.037 27.708 66.057 26.698 66.078 26.312 66.336 21.541 66.308 18.702 66.139 13.947A46 46 0 0 1 65.514 13.876L66.135 13.878 66.139 13.947C67.188 14.059 68.502 14.178 69.084 14.178 69.795 14.178 71.578 14.005 72.656 13.876 72.635 14.464 72.619 14.869 72.603 15.464 72.537 18.224 72.521 19.117 72.568 21.879 72.597 23.741 72.654 26.236 72.779 28.101z" data-fill-palette-color="accent"></path></g><polygon fill="#ffffff" points="72.656,13.876 72.656,13.876 72.656,13.876   " data-fill-palette-color="accent"></polygon></g></g></svg></g></svg></g></svg></g></svg></g><g><path d="M0 123.6c0-68.262 55.338-123.6 123.6-123.6 52.697 0 97.691 32.978 115.471 79.422l-2.099 0c-17.681-45.34-61.775-77.465-113.372-77.464-67.181 0-121.642 54.461-121.642 121.642 0 67.181 54.461 121.642 121.642 121.642 51.597 0 95.691-32.125 113.372-77.464l2.099 0c-17.78 46.444-62.774 79.422-115.471 79.422-68.262 0-123.6-55.338-123.6-123.6z" fill="#ffffff" stroke="transparent" data-fill-palette-color="tertiary"></path></g></svg></g><defs></defs></svg><rect width="395.52" height="247.2" fill="none" stroke="none" visibility="hidden"></rect></g></svg></g></svg>